# xmcd
# Track frame offsets:
# 151
# 12453
# 24541
# 37753
# 47874
# 61667
# 73060
# 84730
# 96562
# 110587
# 121011
#
# Disc length: 1744 seconds
# Revision: 0
# Processed by: cddbd v1.4PL0 Copyright (c) Steve Scherf et al.
# Submitted via: VisiTrax 2.9.5.180 - For more info visit www.synapsa.com
#
DISCID=8e06ce0b
DTITLE=Johnny Paycheck - Greatest Hits
DYEAR=1999
DGENRE=
TTITLE0=Take This Job And Shove It
TTITLE1=She´s All I Got
TTITLE2=Slide Of Your Satin Sheets
TTITLE3=Motel Time Again
TTITLE4=I´m The Only Hell ( My Mama Ever Raised)
TTITLE5=For A minute There
TTITLE6=Song And Dance Man
TTITLE7=Somthing About You I Love
TTITLE8=Someone To Give My love To
TTITLE9=Don´t Monkey With Another Monkey´s Monkey
TTITLE10=Mister Love Maker
EXTD=
EXTT0=
EXTT1=
EXTT2=
EXTT3=
EXTT4=
EXTT5=
EXTT6=
EXTT7=
EXTT8=
EXTT9=
EXTT10=
PLAYORDER=
